<svg width="148" height="148" viewBox="0 0 148 148" fill="none" xmlns="http://www.w3.org/2000/svg">
<g id="Empty States [HR Management] [1.0]">
<rect width="148" height="148" rx="74" fill="#F2F5F8"/>
<rect id="vector" x="35.248" y="40.1309" width="65.9741" height="83.2222" rx="3.05155" fill="#E1E4EA" stroke="#99A0AE" stroke-miterlimit="10"/>
<path id="vector_2" d="M42.5 36.3839V105.578C42.5 111.643 47.4131 116.556 53.4779 116.556H100.937C105.102 116.556 108.474 113.184 108.474 109.018V36.3839C108.474 34.6979 107.109 33.3323 105.423 33.3323H45.5515C43.8656 33.3323 42.5 34.6979 42.5 36.3839Z" fill="white" stroke="#99A0AE" stroke-miterlimit="10"/>
<rect id="vector_3" x="62.0713" y="29.0148" width="26.8307" height="8.63836" rx="1.52577" fill="#CACFD8" stroke="#99A0AE" stroke-miterlimit="10"/>
<path id="vector_4" d="M70 25.5C70 22.4624 72.4624 20 75.5 20C78.5376 20 81 22.4624 81 25.5V29H70V25.5Z" fill="#CACFD8" stroke="#99A0AE" stroke-miterlimit="10"/>
<circle id="vector_5" cx="75.4863" cy="24.9912" r="2.4912" fill="white"/>
<path id="vector_6" d="M108.86 40.1309H112.663C114.349 40.1309 115.715 41.4971 115.715 43.1824V57.7954C115.715 59.4807 114.349 60.8469 112.663 60.8469H108.86V40.1309Z" fill="#E1E4EA" stroke="#99A0AE" stroke-miterlimit="10"/>
<path id="vector_7" d="M108.86 87.9604H112.663C114.349 87.9604 115.715 89.3267 115.715 91.012V105.625C115.715 107.31 114.349 108.677 112.663 108.677H108.86V87.9604Z" fill="#E1E4EA" stroke="#99A0AE" stroke-miterlimit="10"/>
<path id="vector_8" d="M60.0377 59.3696H55.1445" stroke="#99A0AE" stroke-linecap="round" stroke-linejoin="round"/>
<path id="vector_9" fill-rule="evenodd" clip-rule="evenodd" d="M54.7705 59.1298C53.3221 58.1063 52.4535 56.3195 52.7594 54.3524C53.0905 52.2263 54.8626 50.5292 57.0001 50.2788C59.967 49.9306 62.4846 52.2402 62.4846 55.137C62.4846 56.7884 61.6642 58.2458 60.4107 59.1315C60.1856 59.2905 60.038 59.5368 60.038 59.8124V62.069C60.038 63.1953 59.1254 64.1078 57.9992 64.1078H57.1836C56.0574 64.1078 55.1448 63.1953 55.1448 62.069V59.8157C55.1448 59.5376 54.9964 59.2897 54.7705 59.1298Z" stroke="#99A0AE" stroke-linecap="round" stroke-linejoin="round"/>
<path id="vector_10" d="M64.1152 51.0594L65.0857 50.0889" stroke="#99A0AE" stroke-linecap="round" stroke-linejoin="round"/>
<path id="vector_11" d="M51.0672 59.2145L50.0967 60.185" stroke="#99A0AE" stroke-linecap="round" stroke-linejoin="round"/>
<path id="vector_12" d="M51.8826 50.2439L50.9121 49.2734" stroke="#99A0AE" stroke-linecap="round" stroke-linejoin="round"/>
<path id="vector_13" d="M64.1152 59.2145L65.0857 60.185" stroke="#99A0AE" stroke-linecap="round" stroke-linejoin="round"/>
<path id="vector_14" d="M64.9307 55.137H66.3089" stroke="#99A0AE" stroke-linecap="round" stroke-linejoin="round"/>
<path id="vector_15" d="M48.873 55.137H50.2513" stroke="#99A0AE" stroke-linecap="round" stroke-linejoin="round"/>
<path id="vector_16" d="M55.1445 61.6614H59.9317" stroke="#99A0AE" stroke-linecap="round" stroke-linejoin="round"/>
<rect id="vector_17" x="71.2363" y="51.308" width="29.1287" height="3.70136" rx="0.762887" fill="#E1E4EA"/>
<rect id="vector_18" x="71.2354" y="58.5266" width="16.8086" height="3.70136" rx="0.762887" fill="#E1E4EA"/>
<path id="vector_19" d="M53.4775 116.556L105.453 116.533C109.039 116.533 111.945 113.634 111.945 110.048C111.945 106.867 109.641 104.212 106.613 103.671L106.407 103.632L55.6899 94.8134C60.702 95.8357 64.4631 100.26 64.4631 105.578C64.4631 111.643 59.55 116.556 53.4775 116.556Z" fill="#CACFD8" stroke="#99A0AE" stroke-miterlimit="10"/>
<circle id="vector_20" cx="108.861" cy="34.7224" r="12.2593" fill="#E1E4EA" stroke="#99A0AE" stroke-miterlimit="10"/>
<g id="vector_21">
<path fill-rule="evenodd" clip-rule="evenodd" d="M100.987 44.1197C101.331 40.3848 104.272 37.4021 107.988 36.9943C106.009 36.5905 104.519 34.8393 104.519 32.7402C104.519 30.3423 106.463 28.3985 108.861 28.3985C111.258 28.3985 113.202 30.3423 113.202 32.7402C113.202 34.8393 111.713 36.5905 109.733 36.9943C113.449 37.402 116.39 40.3847 116.734 44.1195C114.604 45.906 111.858 46.9817 108.861 46.9817C105.863 46.9817 103.117 45.906 100.987 44.1197Z" fill="#99A0AE"/>
<path d="M107.988 36.9943L108.043 37.4913C108.288 37.4644 108.477 37.2633 108.488 37.0172C108.499 36.7712 108.33 36.5536 108.088 36.5044L107.988 36.9943ZM100.987 44.1197L100.489 44.0738C100.474 44.2371 100.54 44.3974 100.666 44.5028L100.987 44.1197ZM109.733 36.9943L109.633 36.5043C109.392 36.5536 109.222 36.7712 109.233 37.0172C109.245 37.2633 109.434 37.4644 109.678 37.4913L109.733 36.9943ZM116.734 44.1195L117.055 44.5026C117.181 44.3972 117.247 44.2369 117.232 44.0737L116.734 44.1195ZM107.934 36.4973C103.982 36.9309 100.855 40.1019 100.489 44.0738L101.485 44.1655C101.807 40.6677 104.563 37.8732 108.043 37.4913L107.934 36.4973ZM104.019 32.7402C104.019 35.0816 105.68 37.0339 107.888 37.4842L108.088 36.5044C106.337 36.1471 105.019 34.597 105.019 32.7402H104.019ZM108.861 27.8985C106.187 27.8985 104.019 30.0662 104.019 32.7402H105.019C105.019 30.6185 106.739 28.8985 108.861 28.8985V27.8985ZM113.702 32.7402C113.702 30.0662 111.535 27.8985 108.861 27.8985V28.8985C110.982 28.8985 112.702 30.6185 112.702 32.7402H113.702ZM109.833 37.4842C112.041 37.0338 113.702 35.0816 113.702 32.7402H112.702C112.702 34.597 111.385 36.1471 109.633 36.5043L109.833 37.4842ZM117.232 44.0737C116.866 40.1018 113.739 36.9309 109.787 36.4972L109.678 37.4913C113.159 37.8731 115.914 40.6676 116.236 44.1654L117.232 44.0737ZM116.413 43.7364C114.37 45.4502 111.736 46.4817 108.861 46.4817V47.4817C111.98 47.4817 114.839 46.3618 117.055 44.5026L116.413 43.7364ZM108.861 46.4817C105.985 46.4817 103.352 45.4503 101.309 43.7366L100.666 44.5028C102.883 46.3618 105.741 47.4817 108.861 47.4817V46.4817Z" fill="#99A0AE"/>
</g>
<circle id="vector_22" cx="39.1382" cy="93.2166" r="12.2593" fill="white" stroke="#99A0AE" stroke-miterlimit="10"/>
<g id="vector_23">
<path fill-rule="evenodd" clip-rule="evenodd" d="M31.2646 102.614C31.6084 98.8793 34.5492 95.8968 38.2647 95.4885C36.2854 95.0843 34.7963 93.3334 34.7963 91.2347C34.7963 88.8368 36.7401 86.8929 39.138 86.8929C41.5358 86.8929 43.4797 88.8368 43.4797 91.2347C43.4797 93.3334 41.9906 95.0843 40.0113 95.4885C43.7268 95.8967 46.6676 98.8791 47.0115 102.614C44.8816 104.4 42.1354 105.476 39.138 105.476C36.1406 105.476 33.3945 104.4 31.2646 102.614Z" fill="#99A0AE"/>
<path d="M38.2647 95.4885L38.3193 95.9855C38.5641 95.9586 38.7529 95.7575 38.7642 95.5115C38.7755 95.2655 38.606 95.0479 38.3647 94.9986L38.2647 95.4885ZM31.2646 102.614L30.7668 102.568C30.7517 102.731 30.8177 102.892 30.9433 102.997L31.2646 102.614ZM40.0113 95.4885L39.9112 94.9986C39.67 95.0479 39.5005 95.2655 39.5118 95.5115C39.5231 95.7575 39.7119 95.9586 39.9567 95.9855L40.0113 95.4885ZM47.0115 102.614L47.3328 102.997C47.4584 102.891 47.5244 102.731 47.5094 102.568L47.0115 102.614ZM38.2101 94.9915C34.2588 95.4257 31.1324 98.5964 30.7668 102.568L31.7625 102.66C32.0845 99.1621 34.8396 96.3679 38.3193 95.9855L38.2101 94.9915ZM34.2963 91.2347C34.2963 93.5757 35.9572 95.5276 38.1647 95.9784L38.3647 94.9986C36.6136 94.641 35.2963 93.0911 35.2963 91.2347H34.2963ZM39.138 86.3929C36.464 86.3929 34.2963 88.5607 34.2963 91.2347H35.2963C35.2963 89.1129 37.0162 87.3929 39.138 87.3929V86.3929ZM43.9797 91.2347C43.9797 88.5607 41.812 86.3929 39.138 86.3929V87.3929C41.2597 87.3929 42.9797 89.1129 42.9797 91.2347H43.9797ZM40.1113 95.9784C42.3188 95.5276 43.9797 93.5756 43.9797 91.2347H42.9797C42.9797 93.0911 41.6624 94.641 39.9112 94.9986L40.1113 95.9784ZM47.5094 102.568C47.1437 98.5962 44.0172 95.4256 40.0659 94.9915L39.9567 95.9855C43.4364 96.3678 46.1915 99.162 46.5136 102.659L47.5094 102.568ZM46.6902 102.231C44.6469 103.944 42.0136 104.976 39.138 104.976V105.976C42.2572 105.976 45.1162 104.856 47.3328 102.997L46.6902 102.231ZM39.138 104.976C36.2625 104.976 33.6292 103.944 31.586 102.231L30.9433 102.997C33.1599 104.856 36.0188 105.976 39.138 105.976V104.976Z" fill="#99A0AE"/>
</g>
<path id="vector_24" d="M22.8672 46.7408C22.8672 46.7408 16.8672 46.7612 16.8672 52.7408C16.8672 46.7612 10.8672 46.7408 10.8672 46.7408C10.8672 46.7408 16.8672 46.7204 16.8672 40.7408C16.8672 46.7204 22.8672 46.7408 22.8672 46.7408Z" fill="white" stroke="#99A0AE" stroke-linecap="round" stroke-linejoin="round"/>
<path id="vector_25" d="M141.138 95.3675C141.138 95.3675 135.138 95.3879 135.138 101.367C135.138 95.3879 129.138 95.3675 129.138 95.3675C129.138 95.3675 135.138 95.347 135.138 89.3674C135.138 95.347 141.138 95.3675 141.138 95.3675Z" fill="white" stroke="#99A0AE" stroke-linecap="round" stroke-linejoin="round"/>
<circle id="vector_26" cx="58.746" cy="80.082" r="3.41203" fill="#E1E4EA"/>
<circle id="vector_27" cx="75.4872" cy="80.0821" r="3.41203" fill="#E1E4EA"/>
<circle id="vector_28" cx="92.2284" cy="80.0821" r="3.41203" fill="#E1E4EA"/>
</g>
</svg>
